HIERARCHY
ROOT Hips
{
 OFFSET 0.000000 0.000000 0.000000
 CHANNELS 6 Xposition Yposition Zposition Yrotation Xrotation Zrotation
 JOINT Chest
 {
  OFFSET 0.000000 9.585900 0.002600
  CHANNELS 3 Yrotation Xrotation Zrotation
  JOINT Chest2
  {
   OFFSET 0.000000 9.601200 -0.005300
   CHANNELS 3 Yrotation Xrotation Zrotation
   JOINT Chest3
   {
    OFFSET 0.000000 9.561800 0.000000
    CHANNELS 3 Yrotation Xrotation Zrotation
    JOINT Chest4
    {
     OFFSET 0.000000 9.552100 0.000000
     CHANNELS 3 Yrotation Xrotation Zrotation
     JOINT Neck
     {
      OFFSET 0.000000 14.453000 0.000000
      CHANNELS 3 Yrotation Xrotation Zrotation
      JOINT Head
      {
       OFFSET 0.000000 8.936500 -0.011300
       CHANNELS 3 Yrotation Xrotation Zrotation
       End Site
       {
        OFFSET 0.000000 17.073600 -0.006000
       }
      }
     }
     JOINT RightCollar
     {
      OFFSET -2.921100 9.558500 0.000000
      CHANNELS 3 Yrotation Xrotation Zrotation
      JOINT RightShoulder
      {
       OFFSET -13.519700 0.000000 0.000000
       CHANNELS 3 Yrotation Xrotation Zrotation
       JOINT RightElbow
       {
        OFFSET 0.000000 -29.696600 0.000000
        CHANNELS 3 Yrotation Xrotation Zrotation
        JOINT RightWrist
        {
         OFFSET 0.000000 -24.004700 0.000000
         CHANNELS 3 Yrotation Xrotation Zrotation
         End Site
         {
          OFFSET 0.000000 -17.728500 0.000000
         }
        }
       }
      }
     }
     JOINT LeftCollar
     {
      OFFSET 2.921100 9.558500 0.000000
      CHANNELS 3 Yrotation Xrotation Zrotation
      JOINT LeftShoulder
      {
       OFFSET 13.519700 0.000000 0.000000
       CHANNELS 3 Yrotation Xrotation Zrotation
       JOINT LeftElbow
       {
        OFFSET 0.000000 -29.696600 0.000000
        CHANNELS 3 Yrotation Xrotation Zrotation
        JOINT LeftWrist
        {
         OFFSET 0.000000 -24.004700 0.000000
         CHANNELS 3 Yrotation Xrotation Zrotation
         End Site
         {
          OFFSET 0.000000 -17.728500 0.000000
         }
        }
       }
      }
     }
    }
   }
  }
 }
 JOINT RightHip
 {
  OFFSET -7.771700 -0.012900 -0.001300
  CHANNELS 3 Yrotation Xrotation Zrotation
  JOINT RightKnee
  {
   OFFSET 0.000000 -40.869800 0.001200
   CHANNELS 3 Yrotation Xrotation Zrotation
   JOINT RightAnkle
   {
    OFFSET 0.000000 -39.717900 0.002100
    CHANNELS 3 Yrotation Xrotation Zrotation
    JOINT RightToe
    {
     OFFSET 0.000000 -4.965400 11.033500
     CHANNELS 3 Yrotation Xrotation Zrotation
     End Site
     {
      OFFSET 0.000000 -1.423100 5.872300
     }
    }
   }
  }
 }
 JOINT LeftHip
 {
  OFFSET 7.771700 -0.012900 -0.001300
  CHANNELS 3 Yrotation Xrotation Zrotation
  JOINT LeftKnee
  {
   OFFSET 0.000000 -40.869800 0.001200
   CHANNELS 3 Yrotation Xrotation Zrotation
   JOINT LeftAnkle
   {
    OFFSET 0.000000 -39.717900 0.002100
    CHANNELS 3 Yrotation Xrotation Zrotation
    JOINT LeftToe
    {
     OFFSET 0.000000 -4.965400 11.033500
     CHANNELS 3 Yrotation Xrotation Zrotation
     End Site
     {
      OFFSET 0.000000 -1.423100 5.872300
     }
    }
   }
  }
 }
}
MOTION
Frames: 15
Frame Time: 0.008333
0.000000 85.388000 0.000000 0.000000 -5.767877 0.000000 0.000000 11.653817 0.000000 0.000000 -5.885947 0.000000 0.000000 -0.000000 0.000000 0.000000 -0.000000 0.000000 0.000000 12.528835 0.000000 0.000000 0.711642 0.000000 0.000000 -0.000000 0.000000 0.000000 0.000000 -90.000000 0.000000 -2.309062 0.000000 0.000000 2.309062 0.000000 0.000000 -0.000000 0.000000 0.000000 -0.000000 90.000000 0.000000 -2.309062 0.000000 0.000000 2.309062 0.000000 0.000000 8.520406 0.000000 0.000000 1.905762 0.000000 -0.000000 -4.658285 0.000000 0.000000 -0.000000 0.000000 0.000000 8.520406 0.000000 0.000000 1.905762 0.000000 -0.000000 -4.658285 0.000000 0.000000 -0.000000 0.000000
-19.191963 57.902026 73.116238 -173.400942 -41.475328 -8.055550 1.977210 28.376079 3.460967 0.189567 5.256048 0.256706 0.345167 8.256187 0.357818 1.098478 23.062334 1.268128 -1.457497 7.712895 -2.750008 -1.512470 -21.501414 -4.684036 4.793696 2.723396 -0.947568 19.904164 -28.529225 -19.580892 13.718870 -65.059833 5.840838 15.201945 7.924829 -26.507651 -11.045790 -1.901291 -5.718812 -7.981268 -29.842266 3.294792 -71.067868 -62.572138 41.690054 -17.511625 -0.774026 19.245871 7.201510 -27.628606 -3.451481 -8.374159 62.682447 -8.961454 5.216600 11.224133 12.240844 -0.613998 0.571070 -0.246044 -11.363060 -35.630469 -1.787845 26.988029 57.161756 26.013327 -9.349300 38.384195 2.824116 -0.074245 -16.158581 -5.026005
-19.192715 57.885521 73.138338 -173.405730 -41.523444 -8.056018 2.001010 28.404041 3.458179 0.201551 5.262726 0.241038 0.345965 8.285157 0.366906 1.106084 23.109338 1.249627 -1.402924 7.587274 -2.724389 -1.414088 -21.730790 -4.668206 4.759918 2.739356 -0.941803 19.901667 -28.465051 -19.594634 13.549697 -65.347265 6.009404 15.124728 7.881926 -26.647474 -11.080153 -1.871677 -5.702602 -7.930464 -29.829508 3.315113 -71.171615 -62.815825 41.803700 -17.476639 -0.776966 19.263104 7.349257 -27.587241 -3.386393 -8.583311 62.641558 -9.215064 5.232004 11.235226 12.349760 -0.573540 0.577158 -0.239119 -11.405661 -35.589642 -1.859809 27.022524 57.112565 26.109889 -9.240412 38.400886 2.853595 -0.133622 -16.152602 -5.081642
-19.193733 57.877233 73.152419 -173.363799 -41.657818 -8.087590 2.020244 28.500353 3.458290 0.214448 5.281870 0.228932 0.320895 8.310568 0.398386 1.119809 23.164880 1.221152 -1.347382 7.464168 -2.701013 -1.312046 -21.958270 -4.652754 4.722524 2.760792 -0.938297 19.904200 -28.471952 -19.599679 13.404436 -65.562553 6.174081 15.054829 7.843102 -26.776418 -11.120404 -1.840656 -5.688734 -7.888199 -29.811529 3.334852 -71.269506 -63.053140 41.925648 -17.449082 -0.782286 19.278987 7.432148 -27.444493 -3.287676 -8.793711 62.591367 -9.497209 5.273682 11.239518 12.424548 -0.591091 0.578944 -0.195563 -11.438329 -35.450148 -1.961017 27.043986 57.055967 26.201151 -9.138998 38.424682 2.879406 -0.180932 -16.153030 -5.133958
-19.192874 57.868163 73.168688 -173.316697 -41.785783 -8.125497 2.032143 28.595709 3.461464 0.222040 5.301668 0.224701 0.319325 8.347886 0.400246 1.133834 23.216354 1.212291 -1.294096 7.327788 -2.667146 -1.210415 -22.182486 -4.639203 4.678521 2.770253 -0.922662 19.925990 -28.543294 -19.607706 13.272487 -65.709180 6.331255 15.000635 7.816240 -26.891010 -11.168964 -1.823054 -5.658619 -7.853170 -29.792229 3.352946 -71.378032 -63.278580 42.067058 -17.428033 -0.785620 19.298239 7.474117 -27.314034 -3.178525 -9.020849 62.551019 -9.771869 5.207670 11.236533 12.423023 -0.509225 0.607997 -0.147994 -11.463103 -35.310744 -2.059531 27.053059 56.994158 26.286121 -9.048612 38.430261 2.902620 -0.229647 -16.131924 -5.182992
-19.191665 57.854586 73.191009 -173.331963 -41.870101 -8.111286 2.087336 28.622510 3.448420 0.219378 5.339636 0.230321 0.318925 8.385195 0.403187 1.144193 23.250353 1.215706 -1.240279 7.209149 -2.647554 -1.109741 -22.401519 -4.630669 4.647719 2.755591 -0.906576 19.916652 -28.513757 -19.614394 13.218202 -65.850924 6.391443 14.933426 7.730799 -26.998417 -11.218767 -1.792627 -5.638330 -7.821068 -29.774686 3.367905 -71.501243 -63.484970 42.223908 -17.407691 -0.781152 19.322592 7.533295 -27.230969 -3.055783 -9.210870 62.485919 -10.094672 5.200360 11.230547 12.531719 -0.504428 0.642237 -0.146416 -11.436761 -35.218854 -2.156090 27.074573 56.932979 26.371719 -8.954578 38.397658 2.952793 -0.288210 -16.079236 -5.235197
-19.190014 57.845447 73.209408 -173.356475 -41.976222 -8.088220 2.129693 28.707442 3.441582 0.226631 5.344120 0.224917 0.337611 8.428231 0.392148 1.136055 23.246395 1.239753 -1.181018 7.119929 -2.643108 -1.005839 -22.612482 -4.632725 4.625494 2.773369 -0.904332 19.849428 -28.425575 -19.587017 13.253105 -66.061559 6.384056 14.851344 7.639060 -27.108238 -11.244862 -1.777124 -5.627363 -7.802298 -29.743749 3.370536 -71.576053 -63.665554 42.332408 -17.383659 -0.770730 19.342757 7.577239 -27.122809 -2.929517 -9.384348 62.418945 -10.407955 5.193458 11.216833 12.628753 -0.499941 0.681223 -0.145091 -11.390735 -35.104711 -2.252307 27.129361 56.880511 26.460285 -8.821951 38.336761 3.073613 -0.365852 -16.029143 -5.303736
-19.186576 57.839298 73.225408 -173.317245 -42.077738 -8.114441 2.134266 28.777104 3.438078 0.223215 5.365087 0.232527 0.336820 8.450469 0.394237 1.141134 23.263150 1.241501 -1.156114 7.062803 -2.634397 -0.863673 -22.844091 -4.656472 4.574392 2.904184 -0.907113 19.856707 -28.522888 -19.606265 13.056410 -66.351056 6.626261 14.823756 7.713112 -27.212580 -11.271875 -1.760534 -5.616789 -7.791575 -29.695491 3.375072 -71.665155 -63.835698 42.469830 -17.356759 -0.757568 19.356812 7.552577 -27.007794 -2.803420 -9.551325 62.355250 -10.691152 5.169593 11.203351 12.680152 -0.472762 0.717753 -0.134548 -11.398029 -34.984044 -2.333942 27.091090 56.822602 26.491908 -8.773522 38.338271 3.057503 -0.382883 -16.009509 -5.329963
-19.183366 57.839048 73.235419 -173.258196 -42.206165 -8.154855 2.120773 28.876023 3.439171 0.222306 5.389517 0.239306 0.347977 8.492135 0.389004 1.140135 23.313434 1.245700 -1.088859 6.907496 -2.625683 -0.763738 -23.018479 -4.686407 4.534390 2.929516 -0.897755 19.846955 -28.573914 -19.613805 12.903419 -66.577191 6.794201 14.801784 7.728682 -27.299398 -11.310009 -1.760434 -5.601463 -7.787343 -29.687817 3.397748 -71.718580 -63.997470 42.578524 -17.332850 -0.741160 19.373152 7.508600 -26.858796 -2.681883 -9.698543 62.292953 -10.944815 5.154960 11.200129 12.727615 -0.454428 0.737368 -0.129076 -11.417220 -34.834695 -2.407502 27.064323 56.770146 26.516525 -8.740839 38.352933 3.038845 -0.392586 -16.008416 -5.348984
-19.194347 57.832143 73.251405 -173.170610 -42.264549 -8.127484 2.033184 28.894658 3.345939 0.213943 5.429574 0.245032 0.347144 8.518060 0.391381 1.134373 23.309675 1.243885 -1.017963 6.827314 -2.629031 -0.663982 -23.183479 -4.729495 4.522593 2.960970 -0.894321 19.806192 -28.565372 -19.587670 12.810310 -66.768901 6.892110 14.784817 7.724598 -27.372172 -11.363821 -1.641700 -5.593766 -7.758863 -29.800739 3.414609 -71.630990 -64.137056 42.528194 -17.314687 -0.721620 19.393433 7.486850 -26.773070 -2.712633 -9.764028 62.248470 -11.082712 5.126889 11.222703 12.749363 -0.424511 0.733765 -0.119148 -11.416024 -34.772999 -2.556134 26.959725 56.718367 26.480790 -8.883459 38.395329 2.817508 -0.275152 -16.005474 -5.296802
-19.192123 57.828517 73.264736 -173.132419 -42.327167 -8.154710 2.017383 28.954027 3.350295 0.218730 5.423241 0.251114 0.344442 8.544670 0.394939 1.129606 23.340345 1.238843 -0.966018 6.731653 -2.632033 -0.552315 -23.351511 -4.787760 4.497752 3.021340 -0.876499 19.814655 -28.621746 -19.614768 12.801073 -66.876676 6.909166 14.743868 7.666644 -27.449846 -11.397372 -1.594185 -5.572292 -7.748150 -29.771302 3.426999 -71.732492 -64.304924 42.699793 -17.297916 -0.697764 19.411798 7.459758 -26.700648 -2.653954 -9.813059 62.207913 -11.191512 5.142743 11.226445 12.800108 -0.440270 0.737490 -0.138307 -11.430809 -34.703991 -2.578943 26.897229 56.706121 26.440413 -8.875952 38.407939 2.788810 -0.260898 -16.003556 -5.296604
-19.189115 57.826690 73.275515 -173.098748 -42.391856 -8.196116 2.020035 28.990446 3.382955 0.213889 5.444440 0.255734 0.342355 8.568196 0.398895 1.126631 23.403640 1.265814 -0.935388 6.617618 -2.671174 -0.431681 -23.517828 -4.860853 4.473022 3.047195 -0.890125 19.853096 -28.694477 -19.674771 12.606017 -67.052190 7.069435 14.751622 7.727746 -27.469925 -11.420981 -1.608878 -5.578092 -7.747150 -29.766218 3.446593 -71.733965 -64.454569 42.759349 -17.281680 -0.669770 19.425565 7.447612 -26.618665 -2.537812 -9.974300 62.148450 -11.412716 5.062588 11.218458 12.793892 -0.362538 0.775302 -0.110533 -11.478845 -34.627554 -2.590073 26.887103 56.682158 26.432216 -8.770163 38.415669 2.856635 -0.313382 -16.002327 -5.328577
-19.194374 57.826108 73.283210 -173.069779 -42.466180 -8.200824 2.004629 29.032346 3.382171 0.211402 5.474111 0.253037 0.339521 8.581401 0.397614 1.124014 23.433575 1.287064 -0.927162 6.568332 -2.700311 -0.291827 -23.691986 -4.948824 4.464644 3.050677 -0.908262 19.779869 -28.664067 -19.581029 12.761665 -67.212701 6.920975 14.739905 7.754593 -27.499362 -11.440661 -1.586452 -5.577560 -7.744246 -29.780816 3.465520 -71.674223 -64.589225 42.749546 -17.268877 -0.641382 19.434957 7.461240 -26.532440 -2.527342 -10.034471 62.122375 -11.480209 5.053152 11.210350 12.794399 -0.356632 0.786973 -0.105581 -11.514989 -34.551068 -2.623477 26.887015 56.666616 26.405422 -8.694901 38.433547 2.900819 -0.348995 -16.030518 -5.341784
-19.203166 57.824890 73.290023 -173.027848 -42.530684 -8.209461 1.975874 29.090085 3.368985 0.209387 5.483464 0.251112 0.339708 8.590844 0.403733 1.117539 23.460156 1.311620 -0.881290 6.494749 -2.734482 -0.193964 -23.821416 -5.044350 4.459408 3.057505 -0.930702 19.741438 -28.656856 -19.514876 12.912728 -67.308001 6.764948 14.725898 7.773507 -27.525690 -11.456304 -1.566390 -5.579116 -7.743499 -29.795541 3.487451 -71.586691 -64.715519 42.711172 -17.257896 -0.613358 19.437643 7.476482 -26.458274 -2.549332 -10.068927 62.112278 -11.493490 5.041683 11.206421 12.791969 -0.349050 0.788548 -0.110796 -11.644567 -34.494629 -2.610221 26.959835 56.661521 26.373433 -8.610455 38.459856 2.960670 -0.386171 -16.062423 -5.358333
-19.215052 57.820021 73.299050 -173.000906 -42.563997 -8.204022 1.941341 29.106399 3.352473 0.208022 5.496854 0.253930 0.337799 8.610283 0.408193 1.109434 23.480380 1.327925 -0.839404 6.423667 -2.776788 -0.094691 -23.937268 -5.149491 4.446999 3.148860 -0.907314 19.777994 -28.726889 -19.572792 12.933896 -67.439928 6.713030 14.740584 7.863573 -27.503345 -11.466043 -1.548106 -5.580669 -7.744151 -29.811426 3.513554 -71.515457 -64.823506 42.681414 -17.275626 -0.597347 19.437267 7.512766 -26.420309 -2.599230 -10.092990 62.105043 -11.486644 5.064713 11.209452 12.814620 -0.369715 0.783353 -0.127228 -11.740888 -34.473805 -2.591311 26.983126 56.670607 26.301784 -8.565512 38.486881 2.990536 -0.387140 -16.085751 -5.363292
